<svg xmlns="http://www.w3.org/2000/svg" width="1240" height="1240"><path d="M942.5 340.165c-18.902 16.752-32.613 26.622-51.784 37.275-5.808 3.228-6.688 4.072-6.118 5.868.366 1.155 1.281 2.714 2.034 3.467.752.752 1.368 2.209 1.368 3.237 0 1.029.45 2.148 1 2.488.55.34 1 1.491 1 2.559s.4 1.941.889 1.941c.488 0 1.204 1.688 1.59 3.75.386 2.063 1.506 5.55 2.489 7.75.982 2.2 2.404 5.8 3.159 8 .755 2.2 1.87 4.53 2.479 5.177.608.647 1.655 3.972 2.327 7.387.672 3.416 1.622 6.937 2.111 7.823 1.977 3.586 5.951 14.946 7.035 20.113.635 3.025 1.75 6.625 2.478 8 1.389 2.625 5.808 16.369 6.913 21.5.355 1.65 1.744 5.777 3.088 9.171 1.343 3.393 2.442 7.143 2.442 8.332 0 1.188 1.08 5.387 2.401 9.329 2.734 8.166 4.72 15.104 7.203 25.168.949 3.85 2.12 7.518 2.601 8.15.48.633 1.327 3.963 1.881 7.401.553 3.438 2.11 9.411 3.46 13.274 1.35 3.863 2.454 8.221 2.454 9.684 0 1.463.856 5.323 1.903 8.576 1.046 3.253 2.189 7.49 2.538 9.415 1.19 6.547 2.773 12.493 4.168 15.651.765 1.733 1.391 4.18 1.391 5.436 0 1.257.696 5.239 1.546 8.849.851 3.61 2.415 10.389 3.477 15.064 1.061 4.675 3.524 15.475 5.473 24 1.949 8.525 3.534 16.331 3.524 17.346-.011 1.015.697 4.311 1.573 7.324.875 3.013 1.349 5.721 1.053 6.017-.297.297.061 2.176.794 4.176.734 2 1.865 7.462 2.514 12.137 1.279 9.206 2.58 16.214 4.176 22.5 1.276 5.023 2.221 10.23 4.264 23.5 2.309 14.993 5.106 24.536 8.884 30.301.947 1.446 1.722 3.094 1.722 3.664 0 .569.599 1.035 1.331 1.035s1.917 1.095 2.634 2.434c.716 1.339 2.577 2.962 4.136 3.608 6.035 2.5 5.437 3.104-12.927 13.065-81.918 44.436-169.358 74.924-260.478 90.823-15.5 2.705-28.349 4.75-28.554 4.545-.205-.205.129-1.813.742-3.573.614-1.76 1.116-4.708 1.116-6.551s.365-3.351.811-3.351c.446 0 1.406-2.362 2.132-5.25.727-2.888 1.937-6.465 2.689-7.95.753-1.486 1.368-4.154 1.368-5.929 0-3.343 1.227-7.962 3.633-13.681.766-1.821 1.807-6.239 2.314-9.819.507-3.579 1.352-7.039 1.879-7.689.978-1.208 2.828-9.206 3.685-15.937.263-2.065.894-4.54 1.402-5.5 1.019-1.923 4.308-14.646 6.01-23.245.599-3.025 1.954-8.425 3.011-12 1.057-3.575 2.464-9.65 3.126-13.5.662-3.85 1.644-7.852 2.183-8.893.539-1.041 1.36-4.919 1.825-8.619.464-3.7 1.757-9.373 2.873-12.607 1.116-3.235 2.435-8.581 2.931-11.881.496-3.3 1.868-9.6 3.049-14 1.181-4.4 2.289-8.675 2.463-9.5.173-.825.664-2.307 1.089-3.293.426-.986.546-2.021.268-2.299-.278-.279.605-4.647 1.963-9.707 1.358-5.061 2.874-12.104 3.368-15.653.495-3.548 1.767-9.173 2.828-12.5 1.061-3.326 2.221-8.51 2.578-11.519.357-3.009 1.536-8.101 2.619-11.316 1.083-3.215 2.388-9.078 2.901-13.029.512-3.951 1.847-9.76 2.967-12.909 1.119-3.149 2.035-7.064 2.035-8.701 0-3.907 1.992-13.273 3.124-14.685.489-.611 1.315-4.436 1.835-8.5s1.867-10.26 2.993-13.769c1.127-3.509 2.048-7.698 2.048-9.307 0-3.552 1.959-11.889 3.156-13.429.476-.614 1.335-4.849 1.907-9.412.572-4.563 1.539-9.229 2.149-10.369.61-1.14 1.241-3.879 1.402-6.088.16-2.208 1.187-7.165 2.281-11.015 1.094-3.85 2.016-8.687 2.047-10.75.032-2.062.431-3.75.886-3.75.932 0 3.172-8.867 3.172-12.555 0-1.322.853-5.225 1.895-8.674 1.835-6.073 3.35-12.886 5.173-23.271.483-2.75 1.311-5.9 1.841-7 1.052-2.186 4.033-16.029 4.586-21.303.191-1.816.768-3.841 1.282-4.5.994-1.273 2.288-5.697 1.666-5.697-.203 0-2.748.949-5.656 2.108-2.908 1.159-10.893 4.107-17.744 6.55-11.497 4.1-12.807 4.362-17 3.402-9.26-2.121-12.799-1.57-39.543 6.156-14.3 4.131-27.217 7.801-28.705 8.155-2.997.714-4.779 5.104-4.789 11.796-.003 2.016-.404 3.816-.89 4-1.073.405-4.703 12.745-6.569 22.333-.749 3.85-2.079 8.673-2.954 10.718-.876 2.045-1.596 5.195-1.599 7-.006 3.826-1.517 9.954-3.558 14.433-.79 1.733-1.436 4.796-1.436 6.807 0 4.005-1.839 12.456-3.056 14.042-.422.55-1.283 3.925-1.914 7.5-1.338 7.58-2.367 11.892-5.134 21.5-1.108 3.85-2.414 9.475-2.901 12.5-.487 3.025-1.615 8.2-2.507 11.5-.891 3.3-1.996 8.25-2.455 11-1.102 6.6-3.104 14.574-4.203 16.733-.485.953-1.346 5.438-1.914 9.968-.568 4.529-1.434 8.718-1.923 9.308-1.126 1.356-2.968 9.498-3.595 15.884-.264 2.691-.926 5.726-1.472 6.744-.545 1.019-2.325 8.042-3.957 15.608-3.587 16.638-4.403 19.925-5.851 23.57-.615 1.548-1.118 4.282-1.118 6.074 0 1.792-1.125 7.017-2.5 11.611s-2.503 9.961-2.506 11.926c-.004 1.966-.667 4.84-1.474 6.388-.808 1.548-1.962 5.598-2.565 9-1.64 9.247-2.607 13.465-4.857 21.186-1.122 3.85-2.053 8.065-2.069 9.366-.016 1.301-.697 4.451-1.514 7-2.048 6.391-4.05 14.183-6.07 23.634-.94 4.4-2.1 8.428-2.577 8.95-.478.522-.868 2.378-.868 4.122 0 1.745-1.125 6.619-2.5 10.831s-2.5 8.605-2.5 9.762c0 2.572-1.788 9.27-3.568 13.366-.725 1.667-1.759 5.717-2.299 9-.539 3.283-1.744 7.769-2.677 9.969-.933 2.2-1.882 5.968-2.108 8.373-.226 2.406-1.296 6.319-2.379 8.695-1.083 2.377-1.969 5.508-1.969 6.957 0 1.448-1.095 5.411-2.433 8.804-1.338 3.394-2.739 8.309-3.113 10.921-.375 2.612-1.031 4.75-1.459 4.75-.428 0-1.061 1.125-1.406 2.5l-.627 2.5-17.731.198c-23.234.26-51.298-.134-58.348-.818-5.494-.534-5.646-.632-6.915-4.477-.714-2.162-1.898-4.43-2.633-5.04-.734-.609-1.335-2.389-1.335-3.956 0-1.566-1.35-5.503-3-8.75-1.649-3.246-3.282-7.319-3.629-9.051-.346-1.731-1.021-3.39-1.5-3.686-.479-.296-.871-1.175-.871-1.954 0-.779-1.305-4.264-2.899-7.746-1.595-3.481-3.336-7.88-3.869-9.775-.533-1.895-2.829-7.775-5.101-13.066-2.272-5.292-4.131-10.553-4.131-11.691 0-1.139-.4-2.317-.889-2.62-.489-.302-1.197-1.775-1.573-3.274-.376-1.498-1.518-4.556-2.538-6.794-1.02-2.238-2.144-5.404-2.499-7.035-.571-2.618-1.242-4.546-4.519-12.965-.428-1.1-1.446-3.575-2.261-5.5-.816-1.925-1.795-5.3-2.176-7.5-.381-2.2-1.262-4.9-1.957-6-1.336-2.116-6.588-16.845-6.588-18.479 0-.529-1.125-3.421-2.5-6.427s-2.5-6.207-2.5-7.113c0-.906-1.35-5.019-3-9.14s-3-8.493-3-9.717c0-1.223-.416-2.652-.924-3.174-1.232-1.266-4.851-10.667-6.632-17.226-.788-2.902-2.143-6.361-3.012-7.688-.869-1.326-2.193-4.576-2.942-7.223-2.105-7.441-9.637-27.635-10.933-29.313-.638-.825-1.725-3.744-2.418-6.487-.692-2.743-1.906-5.703-2.699-6.579-.792-.875-1.44-2.547-1.44-3.716 0-2.58-1.793-6.882-4.21-10.103-.985-1.312-1.79-3.417-1.79-4.678 0-1.262-.595-2.889-1.322-3.616-.727-.727-2.162-3.572-3.189-6.322-1.026-2.749-2.906-6.566-4.177-8.481-1.272-1.915-2.312-4.015-2.312-4.667 0-1.303-6.65-14.282-8.096-15.801-.497-.522-.904-1.737-.904-2.698 0-.962-1.125-2.963-2.5-4.447-1.375-1.483-2.5-3.161-2.5-3.728 0-1.355-7.142-11.948-8.75-12.977-.687-.44-1.25-1.382-1.25-2.094s-2.277-3.897-5.06-7.077c-2.783-3.18-5.748-6.833-6.589-8.117-.842-1.284-2.39-2.607-3.44-2.94-1.051-.334-1.911-1.179-1.911-1.879s-1.125-1.785-2.5-2.411c-1.375-.627-2.523-1.711-2.551-2.411-.055-1.388-12.228-9.706-20.352-13.907-7.708-3.985-18.583-6.206-30.149-6.157-8.398.035-11.708.56-20.114 3.189-5.534 1.73-10.868 4.037-11.853 5.125-.985 1.088-2.149 1.979-2.586 1.979-1.095 0-9.466 5.713-12.723 8.683-7.116 6.489-12.252 11.738-14.783 15.109-1.531 2.039-3.036 3.933-3.345 4.208-.309.275-1.683 2.184-3.053 4.243-1.37 2.059-2.78 3.746-3.133 3.75-.352.004-.924 1.132-1.269 2.507-.345 1.375-1.057 2.5-1.583 2.5s-1.86 1.985-2.966 4.412c-1.105 2.426-2.354 4.563-2.775 4.75-.825.365-2.838 3.9-7.593 13.338-1.662 3.3-3.353 6.226-3.757 6.503-.403.277-1.536 2.527-2.516 5-.981 2.473-2.318 4.947-2.971 5.497-.653.55-1.488 2.287-1.855 3.86-.631 2.707-2.398 7.033-6.595 16.14-1.013 2.2-2.829 6.7-4.034 10-1.205 3.3-2.585 6.428-3.067 6.95-.483.523-.877 1.766-.877 2.764 0 .997-.396 2.595-.881 3.55-2.944 5.804-5.057 11.217-5.657 14.497-.379 2.069-1.088 4.008-1.575 4.309-.488.301-.89 1.534-.893 2.739-.004 1.205-.712 3.541-1.575 5.191-4.306 8.239-6.733 26.704-5.251 39.966 2.012 18.009 13.743 37.366 27.14 44.784 1.739.963 3.746 1.75 4.462 1.75.715 0 2.297.635 3.515 1.411 3.49 2.224 17.464.802 19.802-2.016.637-.767 1.554-1.395 2.039-1.395.485 0 2.862-1.912 5.283-4.25 4.952-4.782 11.063-15.362 12.107-20.964.381-2.043 1.321-4.236 2.089-4.873.767-.637 1.395-1.784 1.395-2.549 0-.765.406-2.173.903-3.128.496-.955 1.476-3.761 2.177-6.236.702-2.475 1.87-5.21 2.598-6.079.727-.868 1.322-2.149 1.322-2.845 0-.697.618-2.462 1.374-3.922.755-1.46 2.625-5.579 4.154-9.154a582.984 582.984 0 015.127-11.6c1.29-2.804 2.345-5.842 2.345-6.75 0-.907.441-1.65.981-1.65.539 0 1.277-1.237 1.638-2.75s1.002-3.2 1.424-3.75c.743-.967 7.225-13.079 11.106-20.75 1.044-2.062 2.337-3.75 2.874-3.75.538 0 .977-.691.977-1.537 0-.845 2.314-4.424 5.142-7.953l5.143-6.418 1.716 2.204c.944 1.212 2.466 3.666 3.383 5.454.917 1.788 2.097 3.25 2.623 3.25.525 0 1.251 1.237 1.614 2.75.362 1.513 2.171 5.704 4.019 9.315 1.848 3.611 3.362 6.986 3.364 7.5.002.514 1.127 3.149 2.5 5.854 1.373 2.706 2.496 5.654 2.496 6.55 0 .897.55 2.181 1.221 2.852.672.672 2.186 4.024 3.364 7.45 3.356 9.756 4.502 12.759 7.561 19.809 1.569 3.619 2.854 7.318 2.854 8.22 0 .902 1.125 4.1 2.5 7.106 1.375 3.006 2.514 6.282 2.531 7.28.017.998 1.138 4.064 2.491 6.814 1.353 2.75 2.464 5.812 2.469 6.805.005.992 1.359 4.977 3.009 8.855 1.65 3.877 3.002 7.565 3.003 8.195.004 1.17 5.09 14.08 6.833 17.341.53.992 1.245 3.577 1.589 5.744.343 2.167 1.484 5.767 2.535 8 1.051 2.233 2.878 7.21 4.06 11.06 1.182 3.85 3.46 10 5.063 13.666 1.604 3.666 3.065 8.028 3.247 9.693.182 1.666.814 3.616 1.403 4.334.589.719 1.557 3.107 2.15 5.307s1.955 5.626 3.027 7.614c1.072 1.988 2.269 5.321 2.66 7.407.391 2.086 1.32 4.96 2.065 6.386.744 1.426 1.355 2.929 1.359 3.34.003.411 1.356 3.605 3.006 7.097 1.65 3.492 3 7.337 3 8.545 0 1.207 1.419 5.213 3.153 8.903 1.734 3.689 3.159 7.271 3.167 7.958.007.688.336 1.25.73 1.25.394 0 .952.898 1.239 1.995.424 1.624.12 1.908-1.634 1.527-1.185-.258-10.48-1.623-20.655-3.035-21.159-2.935-52.277-10.465-80.31-19.433-21.222-6.789-71.611-22.016-83.19-25.138-4.4-1.187-12.403-4.091-17.785-6.455-5.382-2.363-11.682-4.615-14-5.003-2.318-.388-7.815-2.037-12.215-3.663-30.528-11.285-53.839-17.656-65.678-17.95-6.968-.174-8.009.06-11.243 2.527-4.026 3.07-4.273 3.851-4.938 15.579-.485 8.557 2.405 29.603 5.981 43.549 5.763 22.478 16.485 48.064 27.762 66.249 3.155 5.087 5.45 9.71 5.101 10.275-.348.564-.038.902.691.751.728-.151 1.264.495 1.192 1.436-.073.941.377 1.616 1 1.5.622-.116 1.072.559 1 1.5-.073.941.377 1.616 1 1.5.622-.116 1.07.572.995 1.528-.075.957.262 1.493.75 1.191.821-.508 1.317.956.981 2.894-.079.454.318.54.881.191.937-.579 1.473.767 1.119 2.809-.079.454.304.548.852.209.547-.338 1.282.529 1.633 1.926.351 1.398 1.053 2.541 1.561 2.541.507 0 1.207.788 1.554 1.75s1.232 2.425 1.967 3.25c.734.825 6.551 8.025 12.927 16 56.595 70.794 135.345 130.108 223.695 168.486 24.932 10.831 33.293 13.896 62.5 22.915 31.982 9.875 35.544 10.747 69.217 16.945 35.452 6.526 35.549 6.537 72.148 8.741l36.647 2.207 36.853-2.24c36.631-2.226 37.062-2.278 71.852-8.659 32.771-6.011 37.101-7.064 68-16.528 28.863-8.841 36.699-11.713 62.5-22.905 141.261-61.281 249.284-169.311 310.545-310.565 10.796-24.893 13.968-33.538 22.892-62.397 9.912-32.054 10.642-35.053 16.923-69.5 8.51-46.676 10.241-70.903 5.676-79.433-1.406-2.628-2.059-2.596-7.949.389-5.361 2.717-23.707 21.612-28.052 28.891-2.802 4.695-21.143 23.653-22.883 23.653-.604 0-3.153 1.901-5.663 4.225-2.511 2.323-6.281 5.361-8.378 6.75-2.097 1.389-9.87 7.074-17.274 12.633-13.522 10.155-36.438 25.795-51.337 35.038-4.4 2.729-9.246 5.783-10.769 6.786l-2.769 1.823 1.918-4.476c4.866-11.352 5.199-27.522 1.118-54.279-1.678-11-3.493-23.15-4.033-27-.539-3.85-1.417-8.575-1.95-10.5-.533-1.925-2.143-9.8-3.578-17.5-1.435-7.7-2.989-15.575-3.453-17.5-.464-1.925-1.346-6.2-1.962-9.5-1.763-9.463-2.781-14.38-4.863-23.5a999.102 999.102 0 01-3.196-14.5c-.691-3.3-2.058-9.15-3.039-13-.981-3.85-2.079-8.91-2.441-11.245-.361-2.334-1.068-4.498-1.57-4.809-.502-.31-.913-1.668-.913-3.018 0-1.349-.935-5.71-2.077-9.691-2.035-7.088-4.597-16.727-8.969-33.737-1.202-4.675-2.534-8.95-2.961-9.5-.427-.55-1.328-3.7-2.003-7-.674-3.3-2.096-8.211-3.158-10.913-1.062-2.702-2.553-7.427-3.314-10.5-.76-3.073-2.968-10.312-4.906-16.087a3696.372 3696.372 0 01-5.004-15c-4.331-13.159-9.831-28.862-11.034-31.5-3.243-7.113-5.587-13.305-6.624-17.5-.612-2.475-1.683-5.4-2.38-6.5-.697-1.1-1.849-3.8-2.561-6-.711-2.2-1.905-4.888-2.651-5.973-.747-1.084-1.358-2.615-1.358-3.4 0-.786-2.25-6.104-5-11.819-2.75-5.715-5-10.626-5-10.914 0-.854-4.875-11.691-6.475-14.394-.814-1.375-1.984-3.738-2.601-5.25-.616-1.512-1.413-2.733-1.772-2.712-.359.02-4.252 3.228-8.652 7.127m275.579 295.418c.048 1.165.285 1.402.604.605.289-.722.253-1.585-.079-1.917-.332-.332-.568.258-.525 1.312m-1 16c.048 1.165.285 1.402.604.605.289-.722.253-1.585-.079-1.917-.332-.332-.568.258-.525 1.312" fill="undefined" fill-rule="evenodd"/></svg>